 <svg  version="1.0" xmlns="http://www.w3.org/2000/svg"  width="300.000000pt" height="291.000000pt" viewBox="0 0 300.000000 291.000000"  preserveAspectRatio="xMidYMid meet">  <g transform="translate(0.000000,291.000000) scale(0.100000,-0.100000)" fill="#000000" stroke="none"> <path d="M836 2394 c-69 -25 -136 -75 -176 -131 -73 -103 -71 -74 -68 -794 l3 -644 27 -52 c55 -104 136 -170 243 -198 84 -21 1211 -23 1293 -1 111 30 211 118 254 224 23 57 23 57 26 655 2 383 -1 619 -8 655 -21 115 -88 206 -192 263 l-63 34 -650 2 c-547 2 -656 0 -689 -13z m1309 -18 c85 -19 186 -101 225 -182 31 -63 38 -137 34 -349 -3 -156 -5 -441 -3 -505 4 -118 -4 -434 -12 -475 -11 -62 -21 -84 -64 -139 -48 -63 -185 -142 -185 -106 0 5 12 13 28 16 15 4 33 11 40 17 6 5 12 7 12 3 0 -8 47 32 74 63 12 13 29 31 38 40 9 9 24 38 33 64 14 41 16 121 15 637 0 364 -4 607 -10 635 -26 115 -98 200 -200 236 -50 18 -92 19 -661 19 -597 0 -608 0 -665 -21 -100 -38 -175 -131 -192 -241 -11 -74 -15 -1217 -4 -1231 5 -7 14 -28 21 -47 24 -75 112 -152 216 -189 29 -11 29 -11 -7 -6 -118 18 -220 126 -247 261 -6 32 -10 278 -10 645 0 568 1 596 20 646 38 100 149 194 246 209 21 3 39 7 40 7 5 6 1194 -2 1218 -7z m17 -72 c64 -21 122 -75 155 -142 l28 -57 0 -620 0 -620 -23 -47 c-28 -57 -108 -131 -160 -150 -29 -10 -169 -13 -652 -13 l-615 0 -53 24 c-30 14 -69 43 -92 68 -72 82 -70 64 -70 749 l0 612 33 63 c34 66 97 120 161 138 17 5 304 10 637 10 523 1 612 -1 651 -15z"/> <path d="M1442 2170 c-249 -65 -446 -267 -508 -520 -18 -74 -17 -249 2 -330 55 -235 238 -428 479 -506 89 -29 305 -48 291 -25 -4 6 -24 11 -46 11 -58 0 -159 35 -226 78 -308 200 -353 629 -91 882 48 46 161 120 183 120 10 0 14 26 16 93 l3 94 176 -145 177 -145 -142 -115 c-77 -63 -158 -131 -179 -151 l-38 -36 1 90 c1 50 1 95 0 100 -3 25 -69 -127 -80 -183 -55 -278 162 -542 448 -544 69 -1 202 25 190 38 -3 2 -29 8 -58 14 -132 25 -254 120 -315 244 -19 39 -38 86 -41 104 -6 31 -6 32 30 32 50 0 150 35 202 71 56 38 108 101 142 169 24 50 27 66 27 165 0 105 -2 114 -33 177 -56 115 -150 189 -279 223 -81 21 -240 19 -331 -5z m360 -41 c91 -29 175 -104 220 -197 28 -59 32 -77 32 -152 1 -75 -3 -93 -31 -152 -37 -78 -87 -137 -141 -164 -20 -10 -40 -22 -43 -27 -3 -4 -39 -14 -80 -22 -120 -25 -133 -61 -68 -194 36 -73 142 -187 204 -219 33 -17 37 -22 22 -27 -48 -19 -184 24 -262 83 -64 48 -129 142 -149 213 -18 63 -22 204 -5 214 5 4 19 -1 29 -10 15 -13 23 -14 40 -5 18 10 165 126 196 155 6 5 34 28 61 50 69 54 98 97 84 123 -18 34 -333 292 -356 292 -27 0 -45 -31 -45 -79 0 -77 -14 -103 -73 -136 -95 -53 -197 -164 -244 -265 -62 -134 -72 -302 -27 -437 30 -89 91 -189 153 -250 l43 -42 -32 9 c-111 32 -266 194 -328 342 -88 211 -56 469 82 657 91 123 254 226 406 255 93 18 230 12 312 -15z"/> </g> </svg> 